<svg width="337" height="347" viewBox="0 0 337 347" fill="none" xmlns="http://www.w3.org/2000/svg">
<circle cx="40" cy="287" r="25" fill="#E79782" fill-opacity="0.2"/>
<circle cx="40" cy="287" r="20" fill="#E79782" fill-opacity="0.5"/>
<circle cx="40" cy="287" r="15" fill="#E79782" fill-opacity="0.7"/>
<circle cx="40" cy="287" r="10" fill="#E79782"/>
<rect opacity="0.7" x="252" y="102.698" width="42" height="42" rx="5" transform="rotate(-45 252 102.698)" fill="#55E4DF" fill-opacity="0.5"/>
<rect x="264.307" y="102.305" width="25" height="25" rx="5" transform="rotate(-45 264.307 102.305)" fill="#55E4DF"/>
<rect opacity="0.7" x="257.347" y="101.857" width="34.5147" height="34.7818" rx="5" transform="rotate(-45 257.347 101.857)" fill="#55E4DF"/>
<rect x="56" y="34" width="218" height="296" rx="20" fill="#2D2C3C"/>
<rect x="85" y="202" width="161" height="14" rx="7" fill="#48485D"/>
<rect x="85" y="149" width="161" height="14" rx="7" fill="#48485D"/>
<rect x="85" y="96" width="161" height="14" rx="7" fill="#48485D"/>
<rect x="85" y="255" width="161" height="14" rx="7" fill="#48485D"/>
<path d="M113.579 34.5C113.579 41.8983 108.983 47 104.289 47C99.596 47 95 41.8983 95 34.5C95 27.1017 99.596 22 104.289 22C108.983 22 113.579 27.1017 113.579 34.5Z" stroke="#53536C" stroke-width="4"/>
<rect width="33.1199" height="27.4834" transform="matrix(0.999906 0.0137112 -0.0174741 0.999847 104.77 34)" fill="#2D2C3C"/>
<path d="M151.617 34.5C151.617 41.8983 147.021 47 142.327 47C137.634 47 133.038 41.8983 133.038 34.5C133.038 27.1017 137.634 22 142.327 22C147.021 22 151.617 27.1017 151.617 34.5Z" stroke="#53536C" stroke-width="4"/>
<rect width="33.1199" height="27.4834" transform="matrix(0.999906 0.0137112 -0.0174741 0.999847 142.808 34)" fill="#2D2C3C"/>
<path d="M189.655 34.5C189.655 41.8983 185.059 47 180.365 47C175.672 47 171.076 41.8983 171.076 34.5C171.076 27.1017 175.672 22 180.365 22C185.059 22 189.655 27.1017 189.655 34.5Z" stroke="#53536C" stroke-width="4"/>
<rect width="33.1199" height="27.4834" transform="matrix(0.999906 0.0137112 -0.0174741 0.999847 180.845 34)" fill="#2D2C3C"/>
<path d="M227.692 34.5C227.692 41.8983 223.096 47 218.403 47C213.71 47 209.114 41.8983 209.114 34.5C209.114 27.1017 213.71 22 218.403 22C223.096 22 227.692 27.1017 227.692 34.5Z" stroke="#53536C" stroke-width="4"/>
<rect width="33.1199" height="27.4834" transform="matrix(0.999906 0.0137112 -0.0174741 0.999847 218.883 34)" fill="#2D2C3C"/>
<path d="M241 299C241 292.373 246.373 287 253 287H289C295.627 287 301 292.373 301 299V335C301 341.627 295.627 347 289 347H253C246.373 347 241 341.627 241 335V299Z" fill="#B18DF8" fill-opacity="0.2"/>
<path d="M245.286 303.286C245.286 296.658 250.658 291.286 257.286 291.286H284.714C291.342 291.286 296.714 296.658 296.714 303.286V330.714C296.714 337.342 291.342 342.714 284.714 342.714H257.286C250.658 342.714 245.286 337.342 245.286 330.714V303.286Z" fill="#B18DF8" fill-opacity="0.5"/>
<rect x="251" y="297" width="40" height="40" rx="10" fill="#B18DF8"/>
<path d="M278.55 307C278.041 307.001 277.538 307.103 277.069 307.3C276.6 307.497 276.175 307.784 275.818 308.146L260.952 323.011L260.893 323.306L259.865 328.476L259.571 329.856L260.952 329.563L266.123 328.535L266.416 328.475L281.283 313.61C281.646 313.253 281.934 312.828 282.131 312.359C282.327 311.89 282.429 311.386 282.429 310.878C282.429 310.369 282.327 309.865 282.131 309.396C281.934 308.927 281.646 308.502 281.283 308.145C280.925 307.783 280.5 307.496 280.031 307.299C279.562 307.103 279.058 307.001 278.55 307V307ZM278.55 308.792C279.024 308.792 279.501 309.008 279.96 309.468C280.875 310.382 280.875 311.373 279.96 312.288L279.285 312.934L276.493 310.143L277.14 309.468C277.599 309.008 278.076 308.792 278.55 308.792V308.792ZM275.172 311.466L277.962 314.257L266.593 325.625C265.979 324.424 265.002 323.448 263.801 322.835L275.172 311.466ZM262.598 324.363C263.154 324.587 263.66 324.921 264.084 325.345C264.508 325.769 264.842 326.275 265.066 326.831L261.98 327.448L262.598 324.363Z" fill="#F8F8F8"/>
<circle cx="20" cy="20" r="20" fill="url(#paint0_linear_15_800)"/>
<circle cx="22" cy="85" r="2" fill="#D9D9D9"/>
<circle cx="22" cy="85" r="4" fill="#D9D9D9" fill-opacity="0.5"/>
<circle cx="22" cy="85" r="5" fill="#D9D9D9" fill-opacity="0.2"/>
<circle cx="279" cy="34" r="2" fill="#D9D9D9"/>
<circle cx="279" cy="34" r="4" fill="#D9D9D9" fill-opacity="0.5"/>
<circle cx="279" cy="34" r="5" fill="#D9D9D9" fill-opacity="0.2"/>
<circle cx="332" cy="313" r="2" fill="#D9D9D9"/>
<circle cx="332" cy="313" r="4" fill="#D9D9D9" fill-opacity="0.5"/>
<circle cx="332" cy="313" r="5" fill="#D9D9D9" fill-opacity="0.2"/>
<circle cx="35" cy="233" r="2" transform="rotate(-3.71603 35 233)" fill="#D9D9D9"/>
<circle cx="35" cy="233" r="4" transform="rotate(-3.71603 35 233)" fill="#D9D9D9" fill-opacity="0.5"/>
<circle cx="35" cy="233" r="5" transform="rotate(-3.71603 35 233)" fill="#D9D9D9" fill-opacity="0.2"/>
<defs>
<linearGradient id="paint0_linear_15_800" x1="9.5" y1="3" x2="22" y2="20" gradientUnits="userSpaceOnUse">
<stop stop-color="#5E3E33"/>
<stop offset="0.0992633" stop-color="#4E362E"/>
<stop offset="1" stop-color="#1E1E1E"/>
</linearGradient>
</defs>
</svg>
